<svg width="12" height="6" viewBox="0 0 12 6" fill="none" xmlns="http://www.w3.org/2000/svg">
<path d="M10.6009 0.134519L5.6953 4.91646L0.789693 0.134519C0.702046 0.0489095 0.584387 0.000981443 0.461867 0.000981443C0.339348 0.000981443 0.221689 0.0489095 0.134042 0.134519C0.0916033 0.176101 0.0578884 0.225731 0.0348719 0.280506C0.0118554 0.335281 0 0.394097 0 0.453511C0 0.512925 0.0118554 0.571742 0.0348719 0.626516C0.0578884 0.681291 0.0916033 0.730922 0.134042 0.772503L5.35275 5.86067C5.4444 5.95 5.56732 6 5.6953 6C5.82328 6 5.9462 5.95 6.03785 5.86067L11.2566 0.773485C11.2993 0.731873 11.3333 0.68212 11.3565 0.627164C11.3797 0.572207 11.3916 0.513162 11.3916 0.453511C11.3916 0.393861 11.3797 0.334815 11.3565 0.279859C11.3333 0.224903 11.2993 0.17515 11.2566 0.133538C11.1689 0.0479276 11.0513 0 10.9287 0C10.8062 0 10.6886 0.0479276 10.6009 0.133538V0.134519Z" fill="#3F86F0"/>
</svg>
