<svg width="18" height="20" viewBox="0 0 18 20" fill="none" xmlns="http://www.w3.org/2000/svg">
<path d="M17.2644 1.82111C17.7022 1.21556 17.7778 0 17.7778 0H0C0 0 0.0755554 1.21556 0.513333 1.82111L7.77778 11.1111V17.7778H5.55556C3.33333 17.7778 3.33333 20 3.33333 20H14.4444C14.4444 20 14.4444 17.7778 12.2222 17.7778H10V11.1111L17.2644 1.82111ZM8.22222 5.55556C8.22222 5.08406 8.40952 4.63188 8.74292 4.29848C9.07632 3.96508 9.5285 3.77778 10 3.77778C10.4715 3.77778 10.9237 3.96508 11.2571 4.29848C11.5905 4.63188 11.7778 5.08406 11.7778 5.55556C11.7778 6.02705 11.5905 6.47924 11.2571 6.81263C10.9237 7.14603 10.4715 7.33333 10 7.33333C9.5285 7.33333 9.07632 7.14603 8.74292 6.81263C8.40952 6.47924 8.22222 6.02705 8.22222 5.55556Z" fill="#D0A650"/>
</svg>
