<svg width="18" height="17" viewBox="0 0 18 17" fill="none" xmlns="http://www.w3.org/2000/svg">
<path d="M4.63994 6.89933C4.96944 5.90244 5.60535 5.03508 6.45695 4.42098C7.30855 3.80687 8.33234 3.4774 9.38227 3.47956C10.5724 3.47956 11.6485 3.9021 12.4936 4.59366L14.9528 2.13517C13.4542 0.828811 11.5337 0.0224609 9.38227 0.0224609C6.05123 0.0224609 3.18358 1.92249 1.80469 4.70563L4.63994 6.89933Z" fill="#EA4335"/>
<path d="M12.2275 12.7077C11.4599 13.2028 10.4853 13.4668 9.38243 13.4668C8.33669 13.469 7.31676 13.1421 6.46706 12.5326C5.61735 11.923 4.98091 11.0616 4.64785 10.0703L1.80273 12.2302C2.5008 13.6431 3.58112 14.8319 4.92097 15.6616C6.26081 16.4913 7.80649 16.9287 9.38243 16.9239C11.448 16.9239 13.4212 16.1894 14.8994 14.8112L12.2282 12.7077H12.2275Z" fill="#34A853"/>
<path d="M14.8998 14.8113C16.4456 13.369 17.4491 11.2225 17.4491 8.47317C17.4491 7.97316 17.3724 7.43583 17.2576 6.93652H9.38281V10.2021H13.9153C13.692 11.3 13.0913 12.15 12.2286 12.7077L14.8998 14.8113Z" fill="#4A90E2"/>
<path d="M4.64798 10.0709C4.47569 9.55606 4.38816 9.01664 4.38882 8.47372C4.38882 7.92301 4.47685 7.39412 4.64023 6.89975L1.80498 4.70605C1.22495 5.87698 0.92595 7.16702 0.931723 8.47372C0.931723 9.82585 1.24511 11.1005 1.80286 12.2308L4.64798 10.0709Z" fill="#FBBC05"/>
</svg>
