<svg width="23" height="20" viewBox="0 0 23 20" fill="none" xmlns="http://www.w3.org/2000/svg">
<path d="M22.3599 20H0.533498C-0.0622415 19.4488 -0.159049 18.987 0.243075 18.6145L9.15683 0.335196C9.39513 0.111732 9.6781 0 10.0058 0C10.3334 0 10.6164 0.111732 10.8547 0.335196L14.8313 8.46927L15.5908 6.05587C15.8142 5.8324 16.0935 5.72067 16.4286 5.72067C16.7637 5.72067 17.0504 5.8324 17.2887 6.05587L22.628 18.6145C23.0301 18.987 22.9408 19.4488 22.3599 20ZM10.0058 2.86034L7.16855 8.55866C7.16855 8.66294 7.15738 8.81192 7.13504 9.00559C7.1127 9.19925 7.10525 9.34078 7.1127 9.43017C7.12015 9.51955 7.14249 9.62011 7.17972 9.73184C7.21695 9.84358 7.29142 9.91806 7.40312 9.95531C7.51482 9.99255 7.67493 10.0037 7.88344 9.98883C8.1962 9.97393 8.47545 9.88827 8.7212 9.73184C8.96694 9.57542 9.16055 9.41155 9.30204 9.24022C9.44353 9.0689 9.63715 8.91248 9.88289 8.77095C10.1286 8.62942 10.4079 8.55866 10.7206 8.55866C10.9887 8.55866 11.2419 8.65922 11.4802 8.86034C11.7185 9.06145 11.9307 9.30726 12.1169 9.59776C12.3031 9.88827 12.4967 10.175 12.6978 10.4581C12.8988 10.7412 13.1371 10.9758 13.4126 11.162C13.6882 11.3482 13.9823 11.4339 14.2951 11.419L10.0058 2.86034Z" fill="#D0A650"/>
</svg>
