<svg width="143" height="29" viewBox="0 0 143 29" fill="none" xmlns="http://www.w3.org/2000/svg">
<path d="M11.1974 24.4575H8.63134V15.4893H2.56607V24.4575H0V6.54688H2.56607V15.0745L8.3203 9.44991V6.54688H10.8864L10.8604 9.70911L7.30942 13.1565V13.4934H8.94237L11.1974 15.7225V24.4575Z" fill="white"/>
<path d="M27.4275 22.2025L25.1725 24.4575H18.4592L16.2301 22.2025V8.80191L18.4592 6.54688H25.1725L27.4275 8.80191V22.2025ZM24.8615 22.2025V8.80191H18.7962V22.2025H24.8615Z" fill="white"/>
<path d="M43.278 8.80191H34.4652V13.2601H40.4009L42.6041 15.4893V22.2025L40.4009 24.4575H34.1282L31.8991 22.2025V20.414L34.4652 17.9516V22.2025H40.038V15.4893H34.1282L31.8991 13.2601V8.80191L34.1282 6.54688H41.0229L43.278 8.80191Z" fill="white"/>
<path d="M95.6227 8.80191H91.6051V24.4575H89.039V8.80191H85.0473V6.54688H95.6227V8.80191Z" fill="white"/>
<path d="M109.599 22.2025L107.344 24.4575H100.63L98.4013 22.2025V8.80191L100.63 6.54688H107.344L109.599 8.80191V22.2025ZM107.033 22.2025V8.80191H100.967V22.2025H107.033Z" fill="white"/>
<path d="M125.89 24.4575H123.35V22.5395L121.432 24.4575H116.947L114.692 22.2025V6.54688H117.258V22.2025H123.35V6.54688H125.89V24.4575Z" fill="white"/>
<path d="M142.739 24.4575H140.173L140.225 22.6431L135.093 17.4851L136.829 15.4893H140.173V8.80191H134.108V24.4575H131.542V11.0051L133.797 8.80191H131.231V6.54688H140.484L142.739 8.80191V15.1782L140.484 17.4332H138.384V17.7702L142.739 22.0729V24.4575Z" fill="white"/>
<path d="M61.884 0.0100766C61.9932 0.00757328 62.2117 0.00253516 62.3209 0C62.5781 0.25012 62.8436 0.492809 63.1071 0.737683C63.1028 0.925141 63.1861 1.06485 63.3913 1.11985C63.2098 1.1637 63.0225 1.18063 62.8377 1.19894C62.7614 1.29505 62.6666 1.3712 62.5534 1.42737C62.5857 1.70741 62.8583 1.86404 63.0455 2.05541C63.2413 2.07277 63.4597 2.06651 63.6095 2.20852C63.7527 2.21262 63.8965 2.21589 64.0409 2.21838C64.0409 2.39254 64.0406 2.56651 64.0423 2.74138C64.2209 2.72429 64.4444 2.75495 64.4966 2.54661C64.8104 2.5441 65.1246 2.54297 65.4391 2.54897C65.5206 2.7112 65.7159 2.71901 65.8705 2.78802C65.8897 2.87924 65.928 3.06159 65.9472 3.15281C66.1041 2.96234 66.2556 2.71654 66.546 2.70814C66.6354 2.82493 66.7299 2.94024 66.8251 3.05445C66.988 3.06676 67.1602 3.08146 67.2308 3.24736C67.3036 3.25003 67.449 3.25534 67.5218 3.25798C67.5252 3.58318 67.499 3.91068 67.542 4.23459C67.5859 4.25902 67.6737 4.30786 67.7175 4.33228C67.7198 4.59366 67.7193 4.85542 67.716 5.11724C67.8915 5.25543 68.1832 5.38018 68.3373 5.13931C68.4202 5.13818 68.5039 5.13791 68.5884 5.13854C68.6951 5.2834 68.8256 5.40985 68.9847 5.50694C68.9871 5.76175 68.9855 6.01675 68.9888 6.27205C69.3529 6.39455 69.1198 6.85572 69.1884 7.13327C69.3724 7.24899 69.52 7.4041 69.6046 7.59825C69.6563 7.51136 69.7103 7.42575 69.7642 7.34011C69.9735 7.34292 70.1836 7.34584 70.3943 7.3519C70.4875 7.45546 70.583 7.5583 70.681 7.65964C70.7249 7.70322 70.8126 7.79034 70.8565 7.83391C71.0009 7.86832 71.1458 7.90992 71.2621 8.00369C71.3848 8.0104 71.5083 8.0174 71.6327 8.02472C71.7337 8.23373 71.9854 8.20425 72.1888 8.24411C72.1198 8.29195 71.9819 8.38757 71.9129 8.4354C71.9065 8.86175 71.9472 9.29166 71.8941 9.71616C71.8519 9.73847 71.7675 9.78307 71.7253 9.80537C71.7209 10.0236 71.6791 10.2368 71.5254 10.4102C71.6212 10.4094 71.8127 10.4076 71.9085 10.4067C71.9128 10.4568 71.9215 10.557 71.9258 10.6071L72.1043 10.6076C72.1094 10.5572 72.1198 10.4564 72.1249 10.406C72.2357 10.4065 72.3472 10.4073 72.4593 10.4084C72.4629 10.4559 72.47 10.5508 72.4736 10.5984C72.6734 10.6315 72.963 10.528 73.0723 10.7454C73.5881 10.7553 74.1043 10.7499 74.6207 10.7481C74.6261 10.8117 74.6369 10.9388 74.6424 11.0024C74.7211 11.0877 74.8 11.1738 74.8789 11.2608C75.0519 11.2619 75.2249 11.2625 75.3999 11.2643C75.3964 11.336 75.3894 11.4793 75.3859 11.551C75.5435 11.6844 75.7177 11.8017 75.9429 11.8008C75.9441 11.7121 75.9463 11.5349 75.9474 11.4462C76.032 11.4472 76.2012 11.449 76.2857 11.4499C76.2922 11.4006 76.3053 11.3021 76.3118 11.2528C76.5559 11.2672 76.8753 11.1952 76.9341 11.5005C76.984 11.4315 77.0839 11.2936 77.1339 11.2246C77.297 11.2699 77.4308 11.3696 77.5652 11.464C77.5671 11.5289 77.5709 11.6587 77.5728 11.7236C77.8507 11.7778 77.7401 12.0618 77.7684 12.2532C77.6464 12.3377 77.5282 12.4258 77.4095 12.5134C77.4121 12.7835 77.4107 13.0537 77.4048 13.3243C77.3181 13.3259 77.1447 13.3291 77.058 13.3307C77.0595 13.6389 77.0601 13.9472 77.057 14.2558C76.8613 14.4076 76.6785 14.5727 76.4953 14.7368C76.4951 14.925 76.4954 15.1139 76.4954 15.303C76.3628 15.4062 76.2323 15.5114 76.1013 15.6157C76.1018 15.6752 76.1029 15.7944 76.1033 15.8539C75.9621 15.9722 75.8022 16.0661 75.6105 16.0867C75.5195 16.187 75.4295 16.288 75.3435 16.392C75.2826 16.4071 75.161 16.4374 75.1001 16.4525C75.1998 16.5074 75.3002 16.5629 75.4011 16.619C75.3955 16.9907 75.3947 17.3627 75.3991 17.735C75.1557 17.922 74.8436 17.9118 74.5472 17.9105C74.4451 18.028 74.3421 18.1446 74.2384 18.2606C74.0174 18.259 73.8638 18.395 73.7269 18.5364C73.7322 18.7133 73.7356 18.8909 73.7429 19.0689C74.0787 19.2359 74.207 19.6923 74.6382 19.6753C74.6426 19.9715 74.6972 20.3095 74.397 20.5028C74.2607 20.4991 74.1253 20.4973 73.9905 20.4974C73.7827 20.7781 73.3283 20.5857 73.0156 20.6379C73.0157 20.5568 73.0162 20.3946 73.0166 20.3135C72.9194 20.3103 72.823 20.3078 72.7274 20.3058C72.6294 20.4126 72.529 20.5175 72.4277 20.6215C72.2579 20.6408 72.1148 20.7217 71.9831 20.8169C71.7751 20.8303 71.5677 20.8243 71.3608 20.8232C71.3568 20.8731 71.349 20.9731 71.3451 21.023C71.1888 21.0203 71.0333 21.0175 70.8785 21.0144C70.7486 21.1354 70.6413 21.2789 70.6312 21.4568C70.5236 21.5427 70.4157 21.6283 70.3096 21.7153C70.317 21.925 70.3207 22.148 70.0841 22.2472C70.1314 22.4814 69.9445 22.8959 70.3019 22.9621C70.2978 23.0471 70.2944 23.1326 70.2915 23.2188C69.8055 23.2349 69.3193 23.2284 68.8336 23.2296C68.8316 23.0756 68.8293 22.9216 68.8272 22.769C68.4748 22.6766 68.6899 22.2563 68.6288 22.0114C68.5767 22.0083 68.4726 22.0021 68.4205 21.999C68.4213 21.9232 68.4232 21.7716 68.4242 21.6958C68.2663 21.6795 68.0837 21.7013 68.0172 21.5342C67.9461 21.5347 67.8039 21.5356 67.7328 21.5361C67.7238 21.4116 67.7156 21.2877 67.708 21.1643C67.4108 21.1644 67.114 21.1642 66.8177 21.1635C66.8133 21.2275 66.8044 21.3555 66.8 21.4196C66.7161 21.5042 66.634 21.5902 66.5526 21.677C66.4016 21.6773 66.2512 21.6783 66.1016 21.6802C66.0224 21.7861 65.9445 21.8933 65.867 22.0006C65.6464 22.0032 65.4262 22.0055 65.207 22.0145C65.1291 22.1007 65.0442 22.1803 64.9522 22.2533C64.9499 22.318 64.9454 22.4474 64.9431 22.5121C64.7746 22.5268 64.5884 22.5289 64.5431 22.7154C64.3979 22.7153 64.2531 22.7141 64.1095 22.7146C64.0181 22.8236 63.9286 22.9345 63.8394 23.0454C63.571 23.0446 63.3031 23.0435 63.0357 23.0472C62.9092 23.3375 62.5328 23.1963 62.2754 23.2369C62.1682 23.3799 62.0353 23.5035 61.8771 23.597C61.8738 23.7564 61.8718 23.9157 61.8714 24.0767C61.8188 24.0802 61.7135 24.0872 61.6609 24.0908C61.6594 24.2443 61.6578 24.3979 61.6568 24.5528C61.5362 24.6398 61.4184 24.7299 61.3001 24.8193C61.3131 25.2345 61.3118 25.6502 61.3025 26.066C61.4213 26.1545 61.5398 26.2442 61.6601 26.3334C61.6611 26.6995 61.6603 27.066 61.6609 27.4328C61.5783 27.5077 61.4967 27.5836 61.4162 27.6606C61.3405 27.6624 61.1892 27.666 61.1135 27.6678C61.1115 27.7393 61.1076 27.8823 61.1057 27.9539C61.0464 28.0088 60.928 28.1186 60.8687 28.1735C60.5428 28.1727 60.2172 28.1719 59.892 28.1759C59.7433 28.3532 59.5876 28.5251 59.4313 28.6967C59.213 28.6977 58.9952 28.6964 58.778 28.6939C58.7475 28.5375 58.713 28.3799 58.5993 28.2569C58.5818 27.8512 58.5903 27.4455 58.5912 27.0403C58.7717 26.8751 58.9494 26.7073 59.1358 26.5479C59.1373 26.3712 59.1378 26.1948 59.1372 26.0195C59.092 25.9961 59.0016 25.9496 58.9564 25.9262C58.9164 25.3752 58.9539 24.8212 58.9427 24.2694C58.8616 24.2692 58.6995 24.2686 58.6184 24.2684C58.5901 24.0992 58.6241 23.8762 58.3782 23.8565C58.377 23.4417 58.3754 23.0271 58.3848 22.6129C58.2759 22.5255 58.1672 22.4383 58.0599 22.3515C58.0293 22.1921 58.0291 22.0067 57.8324 21.9466C57.8296 21.8266 57.8273 21.7073 57.8255 21.5886C57.5912 21.4914 57.6292 21.1423 57.8784 21.0937C57.6724 20.9242 57.48 20.7417 57.2818 20.5656C57.2809 20.5085 57.279 20.3943 57.2781 20.3373C57.0495 20.2952 56.8435 20.1906 56.6207 20.1336C56.5566 19.9851 56.4003 19.9726 56.2509 19.9655C56.2148 19.9289 56.1426 19.8559 56.1065 19.8194C55.9657 19.8031 55.8471 19.7493 55.7504 19.6578C55.6856 19.6562 55.5562 19.6531 55.4914 19.6515C55.41 19.3258 55.2484 19.021 55.2936 18.676C55.2046 18.6 55.1204 18.5203 55.0411 18.4371C54.5904 18.4178 54.1394 18.4415 53.6891 18.4274C53.5741 18.4323 53.4769 18.3968 53.3972 18.321C53.2963 18.2256 53.1923 18.1335 53.0853 18.0459C53.0781 17.765 53.0954 17.4837 53.0717 17.204C52.9926 17.0103 52.862 16.8421 52.7398 16.672C52.737 16.6085 52.7314 16.4815 52.7285 16.418C52.6785 16.4111 52.5784 16.3973 52.5284 16.3904C52.5286 16.3246 52.5291 16.193 52.5293 16.1272C52.3123 16.0071 52.3987 15.7498 52.366 15.5592C52.1862 15.554 52.0061 15.5491 51.8273 15.5459C51.8268 15.4809 51.8256 15.3509 51.825 15.286C51.734 15.2067 51.6439 15.1274 51.5548 15.0479C51.482 15.0442 51.3365 15.0367 51.2637 15.0329C51.2624 14.9664 51.2596 14.8333 51.2582 14.7667C51.0921 14.6689 51.0465 14.5095 51.0529 14.3357C51.1445 14.3324 51.3279 14.3256 51.4196 14.3223C51.4194 14.0124 51.4228 13.7027 51.4062 13.3936C51.2966 13.201 51.2059 12.9947 51.0313 12.8442C50.9876 12.7944 50.9001 12.6946 50.8564 12.6448C50.7925 12.6401 50.6646 12.6309 50.6007 12.6263C50.521 12.5512 50.4413 12.477 50.3615 12.4035C50.3611 12.2757 50.3606 12.1485 50.36 12.0216C50.0838 11.9691 50.1863 11.6866 50.1519 11.497C49.82 11.2945 50.1106 10.9159 50.2052 10.6623C50.2679 10.5897 50.3351 10.521 50.4066 10.456C50.5306 10.3416 50.6413 10.2154 50.7433 10.0838C50.9029 10.0816 51.0626 10.0833 51.2232 10.0836C51.316 10.1976 51.4123 10.3102 51.5077 10.4237C51.5877 10.4188 51.7478 10.409 51.8278 10.4041C51.8275 10.4907 51.8271 10.664 51.8268 10.7506C52.427 10.7509 53.0273 10.7485 53.6277 10.7526C53.6441 10.5916 53.6124 10.3908 53.8369 10.3548C53.8424 10.0336 53.8407 9.7127 53.8524 9.39213C54.063 9.379 54.3035 9.41595 54.4591 9.24756C54.5304 9.24317 54.6727 9.23439 54.7439 9.22997C54.7431 9.05669 54.7432 8.8842 54.7436 8.71181C55.0335 8.71213 55.3246 8.7261 55.6144 8.69992C55.6391 8.65176 55.6884 8.55541 55.7131 8.50723C55.9069 8.49822 56.0257 8.59207 56.0765 8.76114C56.1824 8.64197 56.291 8.52485 56.4023 8.40997C56.5862 8.37224 56.7564 8.29842 56.8783 8.16053C57.0683 8.01133 57.3094 7.9382 57.5247 7.82752C57.472 7.77835 57.3664 7.68002 57.3137 7.63084C57.3052 7.39094 57.1312 7.22394 56.9297 7.10047C56.9254 6.86362 56.9258 6.62706 56.9309 6.39078C57.084 6.26194 57.2324 6.12805 57.3747 5.9886C57.505 5.98838 57.6358 5.98836 57.7672 5.98848C57.9975 5.69417 58.2846 5.44396 58.5895 5.21819C58.5897 5.1513 58.5899 5.01759 58.59 4.9507C58.6653 4.95217 58.8159 4.95509 58.8912 4.95655C58.9203 5.12914 59.0773 5.14334 59.2297 5.14787C59.3035 5.05421 59.3868 4.96842 59.4795 4.89053C59.4843 4.83665 59.494 4.72892 59.4988 4.67504C59.7835 4.49833 59.5908 4.10372 59.6527 3.8356C59.7924 3.70529 59.9912 3.60361 60.0536 3.41908C59.9968 3.23584 59.7958 3.13893 59.6618 3.00807C59.7615 2.57728 59.3315 2.38216 59.0938 2.09366C58.9856 2.08162 58.878 2.07032 58.7709 2.05973C58.7357 1.91491 58.7505 1.7373 58.5947 1.64714C58.5885 1.44228 58.5886 1.23764 58.5894 1.03324C59.0552 1.02291 59.5241 1.06049 59.9884 1.01379C60.0114 0.976642 60.0575 0.902341 60.0805 0.865175C60.2782 0.752321 60.4971 0.669665 60.6737 0.525942C60.8677 0.520505 61.0621 0.518926 61.2573 0.517858C61.3503 0.406582 61.4456 0.296901 61.5405 0.18682C61.6201 0.189132 61.7791 0.193788 61.8587 0.196116C61.865 0.149606 61.8778 0.0565707 61.8842 0.0100449L61.884 0.0100766Z" fill="#3F86F0"/>
</svg>
